<svg xmlns="http://www.w3.org/2000/svg" viewBox="0 0 732 433.23"><defs><style>.cls-1{fill:#f90000;}.cls-2{fill:#ffb600;}.cls-3{fill:#6e0b51;}.cls-4{fill:#0f9393;}.cls-5{fill:#3fa9a9;}.cls-6{fill:#004646;}.cls-7{fill:#fecccc;}.cls-8{fill:#c3c3c2;}.cls-9{fill:#a4a4a4;}.cls-10{fill:#686867;}.cls-11{fill:#fff;}</style></defs><g id="Capa_2" data-name="Capa 2"><g id="OFERTA_ACADEMICA" data-name="OFERTA ACADEMICA"><polygon class="cls-1" points="545.67 431.75 0 431.75 186.33 95.14 732 95.14 545.67 431.75"/><polygon class="cls-2" points="384.88 206.39 50.31 206.39 164.56 0 499.13 0 384.88 206.39"/><polygon class="cls-3" points="648.98 384.75 371 384.75 415.18 314.12 693.16 314.12 648.98 384.75"/><path class="cls-4" d="M437.71,94.79h65.08a13,13,0,0,1,13,13V283.54H164.35V107.81a13,13,0,0,1,13-13Z"/><path class="cls-5" d="M528.83,374.66v19.52a13.07,13.07,0,0,1-13,13H164.35a13.07,13.07,0,0,1-13-13V374.66l13-91.12H515.81Z"/><path class="cls-6" d="M528.83,374.66v19.52a13.07,13.07,0,0,1-13,13H164.35a13.07,13.07,0,0,1-13-13V374.66Z"/><path class="cls-7" d="M314.05,351.88v42.3l-19.53,13v26H229.44v-26l-13-19.52V338.86a9.76,9.76,0,1,1,19.52,0v-13a9.77,9.77,0,0,1,19.53,0v-13a9.77,9.77,0,0,1,19.53,0v6.51a9.76,9.76,0,1,1,19.52,0v32.54a9.77,9.77,0,0,1,19.53,0Z"/><path class="cls-7" d="M463.74,338.86v48.82l-13,19.52v26H385.64v-26l-19.53-13v-42.3a9.77,9.77,0,0,1,19.53,0V319.34a9.76,9.76,0,1,1,19.52,0v-6.51a9.77,9.77,0,0,1,19.53,0v13a9.77,9.77,0,0,1,19.53,0v13a9.76,9.76,0,0,1,19.52,0Z"/><path class="cls-8" d="M196.89,120.83H483.27a6.5,6.5,0,0,1,6.5,6.51v156.2H190.39V127.34A6.5,6.5,0,0,1,196.89,120.83Z"/><path class="cls-9" d="M222.93,146.86H333.57V179.4H222.93Z"/><path class="cls-10" d="M222.93,179.4H333.57v26H222.93Z"/><path class="cls-9" d="M222.93,205.44H333.57v26H222.93Z"/><path class="cls-10" d="M222.93,231.47H333.57v26H222.93Z"/><path class="cls-11" d="M515.81,49.23H333.57V192.42h26v39.05l52.06-39.05H515.81Z"/><path class="cls-1" d="M366.11,101.3h26v58.58h-26Z"/><path class="cls-1" d="M411.67,127.34h26v32.54h-26Z"/><path class="cls-1" d="M457.23,75.27h26v84.61h-26Z"/><path class="cls-3" d="M398.66,218.46h71.59v13H398.66Z"/><path class="cls-3" d="M398.66,244.49h19.52v13H398.66Z"/><path class="cls-3" d="M431.2,244.49h39.05v13H431.2Z"/><path class="cls-2" d="M353.1,153.37H496.28v13H353.1Z"/></g></g></svg>