<svg xmlns="http://www.w3.org/2000/svg" viewBox="0 0 29.89 51"><defs><style>.cls-1{fill:#606060;}</style></defs><g id="Capa_2" data-name="Capa 2"><g id="LICENCIATURAS"><path class="cls-1" d="M14.94,0A14.95,14.95,0,0,0,1.45,21.37l.06.12L12.8,43.36a2.42,2.42,0,0,0,4.29,0L28.38,21.5l.05-.11a14.78,14.78,0,0,0,1.46-6.45A15,15,0,0,0,14.94,0Zm0,22.77a7.83,7.83,0,1,1,7.83-7.83A7.83,7.83,0,0,1,14.94,22.77Z"/><path class="cls-1" d="M20.7,48.1H9.19a1.45,1.45,0,1,0,0,2.9H20.7a1.45,1.45,0,1,0,0-2.9Z"/></g></g></svg>