<svg xmlns="http://www.w3.org/2000/svg" viewBox="0 0 43.17 37.76"><defs><style>.cls-1{fill:#606060;}</style></defs><g id="Capa_2" data-name="Capa 2"><g id="LICENCIATURAS"><path class="cls-1" d="M42.38,8.28v0a30.23,30.23,0,0,0-41.62,0A2.62,2.62,0,0,0,0,10.17,2.58,2.58,0,0,0,.76,12L5,16.29a2.72,2.72,0,0,0,3.67,0,19.12,19.12,0,0,1,4.37-3,2.74,2.74,0,0,0,1.31-2.51V6.05a28.06,28.06,0,0,1,7.19-.66,28.09,28.09,0,0,1,7.2.66v4.73a2.66,2.66,0,0,0,1.28,2.52,18.72,18.72,0,0,1,4.39,3,2.66,2.66,0,0,0,1.82.72,2.59,2.59,0,0,0,1.86-.77L42.4,12A2.64,2.64,0,0,0,42.38,8.28Z"/><path class="cls-1" d="M38.38,25.35,28.54,14.66a.91.91,0,0,0-.66-.28H27v-2.7a.9.9,0,0,0-1.8,0v2.7H18v-2.7a.9.9,0,0,0-1.8,0v2.7h-.9a.92.92,0,0,0-.66.29L4.78,25.35a1.1,1.1,0,0,0-.14.21A10,10,0,0,0,3.6,30v6.87a.9.9,0,0,0,.9.9H38.67a.9.9,0,0,0,.9-.9V30a9.89,9.89,0,0,0-1-4.43A.85.85,0,0,0,38.38,25.35ZM21.13,18H22a.9.9,0,0,1,0,1.8h-.9a.9.9,0,0,1,0-1.8Zm-.45,3.59h1.8a.9.9,0,0,1,0,1.8h-1.8a.9.9,0,0,1,0-1.8ZM17.38,27H15.29a.9.9,0,0,1,0-1.8h2.09a.9.9,0,0,1,0,1.8Zm.61-3.6h-1.8a.9.9,0,0,1,0-1.8H18a.9.9,0,0,1,0,1.8Zm0-3.59h-.9a.9.9,0,0,1,0-1.8H18a.9.9,0,0,1,0,1.8ZM22.68,27H20.44a.9.9,0,1,1,0-1.8h2.24a.9.9,0,0,1,0,1.8Zm2.5-9h.9a.9.9,0,0,1,0,1.8h-.9a.9.9,0,0,1,0-1.8Zm-.9,4.49a.9.9,0,0,1,.9-.9H27a.9.9,0,0,1,0,1.8h-1.8A.9.9,0,0,1,24.28,22.47Zm3.6,4.5H25.82a.9.9,0,0,1,0-1.8h2.06a.9.9,0,0,1,0,1.8Z"/></g></g></svg>